<svg width="33" height="33" viewBox="0 0 33 33" fill="none" xmlns="http://www.w3.org/2000/svg">
<g filter="url(#filter0_diii_134_3080)">
<path d="M8.97083 22.4418C9.52563 23.0083 9.83639 23.7699 9.83639 24.5631C9.83639 25.3563 9.52563 26.1179 8.97083 26.6844C7.43665 28.2299 4.17653 28.7047 3.81317 28.7047H3.68196C3.53761 28.7059 3.39468 28.6761 3.26281 28.6174C3.13094 28.5586 3.0132 28.4722 2.91753 28.364C2.82187 28.2558 2.75051 28.1284 2.70826 27.9902C2.66601 27.8521 2.65386 27.7065 2.67263 27.5632C2.7231 27.1996 3.1773 23.9368 4.69128 22.4014C5.26436 21.8392 6.03698 21.5277 6.83941 21.5353C7.64184 21.5429 8.40845 21.8689 8.97083 22.4418Z" fill="url(#paint0_linear_134_3080)"/>
</g>
<g filter="url(#filter1_diii_134_3080)">
<path d="M25.134 17.8185C22.7479 20.1618 20.0919 22.2129 17.2221 23.9288C16.6456 24.25 15.9964 24.4181 15.3365 24.4171C14.8127 24.4201 14.2936 24.319 13.8092 24.1196C13.3247 23.9203 12.8847 23.6266 12.5146 23.2557L8.55867 19.2966C7.95139 18.6904 7.55742 17.9031 7.43612 17.0534C7.31482 16.2036 7.47277 15.3374 7.88616 14.5853C9.60067 11.7131 11.6501 9.05509 13.9915 6.66704C15.8285 4.72105 18.1425 3.29026 20.7034 2.51697C23.2644 1.74367 25.9829 1.65481 28.5888 2.25922C28.7977 2.32201 28.9877 2.43564 29.1418 2.58995C29.296 2.74426 29.4096 2.93442 29.4723 3.14342C30.0966 5.75552 30.0244 8.4859 29.2631 11.0613C28.5017 13.6367 27.0779 15.9669 25.134 17.8185ZM23.8153 7.89436C23.4471 7.52366 22.9773 7.27072 22.4652 7.16761C21.9532 7.06449 21.4222 7.11584 20.9393 7.31515C20.4565 7.51446 20.0437 7.85275 19.7532 8.28714C19.4627 8.72152 19.3077 9.23245 19.3077 9.75515C19.3077 10.2778 19.4627 10.7888 19.7532 11.2232C20.0437 11.6575 20.4565 11.9958 20.9393 12.1951C21.4222 12.3945 21.9532 12.4458 22.4652 12.3427C22.9773 12.2396 23.4471 11.9866 23.8153 11.6159C24.3118 11.1267 24.5947 10.4606 24.6021 9.76331C24.6095 9.066 24.3409 8.3941 23.8549 7.89436H23.8153ZM25.3582 19.389C23.2229 21.3893 20.9002 23.1791 18.4221 24.7338L21.0594 27.3732C21.1826 27.4955 21.3287 27.5923 21.4894 27.658C21.65 27.7236 21.8221 27.7569 21.9956 27.7559C22.3416 27.7545 22.6731 27.617 22.9187 27.3732L23.8153 26.4758C24.4351 25.8609 24.9268 25.129 25.2618 24.3226C25.5968 23.5161 25.7685 22.6511 25.7669 21.7777C25.7866 20.9658 25.6616 20.1569 25.3977 19.389H25.3582ZM5.24888 7.85477L4.3522 8.75217C4.1066 8.99943 3.96875 9.33391 3.96875 9.68256C3.96875 10.0312 4.1066 10.3657 4.3522 10.613L6.98948 13.2524C8.51656 10.7755 10.2832 8.45483 12.264 6.32391C11.072 5.87334 9.77498 5.77814 8.52998 6.04983C7.28498 6.32151 6.14532 6.94844 5.24888 7.85477Z" fill="#EAE8FF"/>
<path d="M25.4932 19.2559L25.5234 19.3457C25.7924 20.1286 25.9204 20.9536 25.9004 21.7812C25.9015 22.6709 25.726 23.5525 25.3848 24.374C25.0857 25.0938 24.6638 25.7548 24.1396 26.3291L23.9092 26.5703L23.0127 27.4668V27.4678C22.7423 27.7362 22.377 27.8871 21.9961 27.8887C21.8053 27.8897 21.6161 27.8534 21.4395 27.7812C21.2626 27.709 21.1014 27.6024 20.9658 27.4678L20.9648 27.4668L18.3281 24.8281L18.21 24.71L18.3516 24.6211C20.8224 23.071 23.1386 21.2864 25.2676 19.292L25.3057 19.2559H25.4932ZM20.665 2.38965C23.0868 1.65837 25.6484 1.53375 28.125 2.02344L28.6191 2.12988L28.627 2.13184C28.8569 2.20096 29.0666 2.32622 29.2363 2.49609C29.3635 2.62342 29.4659 2.77277 29.5381 2.93652L29.5996 3.10547L29.6016 3.1123C30.2312 5.74693 30.1585 8.50098 29.3906 11.0986C28.6227 13.6964 27.1863 16.0473 25.2256 17.915C22.8323 20.265 20.1683 22.322 17.29 24.043L17.2871 24.0449C16.6909 24.3771 16.0193 24.5498 15.3369 24.5488V24.5498C14.7958 24.5529 14.2593 24.4491 13.7588 24.2432C13.2581 24.0371 12.8025 23.733 12.4199 23.3496V23.3486L8.46484 19.3906C7.83718 18.7641 7.43008 17.9505 7.30469 17.0723C7.17933 16.194 7.34235 15.2988 7.76953 14.5215L7.77148 14.5166C9.49099 11.6361 11.5465 8.97032 13.8945 6.5752C15.7475 4.6124 18.0819 3.16964 20.665 2.38965ZM8.50195 5.91992C9.77201 5.64283 11.0955 5.73958 12.3115 6.19922L12.4961 6.26953L12.3613 6.41406C10.3865 8.53859 8.62504 10.8528 7.10254 13.3223L7.01465 13.4658L6.89551 13.3467L4.25781 10.707C3.98745 10.4348 3.83595 10.0664 3.83594 9.68262C3.83594 9.29884 3.98744 8.93041 4.25781 8.6582L5.1543 7.76074L5.32812 7.59082C6.21408 6.75764 7.31115 6.17978 8.50195 5.91992ZM22.4395 7.29785C21.9533 7.19994 21.4487 7.24923 20.9902 7.43848C20.5318 7.62772 20.1401 7.94886 19.8643 8.36133C19.5885 8.77374 19.4405 9.25861 19.4404 9.75488C19.4404 10.2512 19.5884 10.7369 19.8643 11.1494C20.1401 11.5617 20.5319 11.8831 20.9902 12.0723C21.4486 12.2615 21.9534 12.3098 22.4395 12.2119C22.9253 12.114 23.3712 11.8742 23.7207 11.5225L23.7217 11.5215C24.1931 11.0569 24.4617 10.4239 24.4688 9.76172C24.4756 9.11749 24.233 8.49751 23.7949 8.02734H23.7598L23.7207 7.98828C23.3712 7.63641 22.9254 7.39581 22.4395 7.29785Z" stroke="#D2CEFF" stroke-width="0.266191"/>
</g>
<defs>
<filter id="filter0_diii_134_3080" x="0.0021565" y="19.938" width="12.4957" height="12.4932" filterUnits="userSpaceOnUse" color-interpolation-filters="sRGB">
<feFlood flood-opacity="0" result="BackgroundImageFix"/>
<feColorMatrix in="SourceAlpha" type="matrix" values="0 0 0 0 0 0 0 0 0 0 0 0 0 0 0 0 0 0 127 0" result="hardAlpha"/>
<feOffset dy="1.06476"/>
<feGaussianBlur stdDeviation="1.33095"/>
<feComposite in2="hardAlpha" operator="out"/>
<feColorMatrix type="matrix" values="0 0 0 0 0.290196 0 0 0 0 0.227451 0 0 0 0 1 0 0 0 0.25 0"/>
<feBlend mode="normal" in2="BackgroundImageFix" result="effect1_dropShadow_134_3080"/>
<feBlend mode="normal" in="SourceGraphic" in2="effect1_dropShadow_134_3080" result="shape"/>
<feColorMatrix in="SourceAlpha" type="matrix" values="0 0 0 0 0 0 0 0 0 0 0 0 0 0 0 0 0 0 127 0" result="hardAlpha"/>
<feOffset dy="1.59714"/>
<feGaussianBlur stdDeviation="1.06476"/>
<feComposite in2="hardAlpha" operator="arithmetic" k2="-1" k3="1"/>
<feColorMatrix type="matrix" values="0 0 0 0 0.874597 0 0 0 0 0.932332 0 0 0 0 1 0 0 0 0.1 0"/>
<feBlend mode="normal" in2="shape" result="effect2_innerShadow_134_3080"/>
<feColorMatrix in="SourceAlpha" type="matrix" values="0 0 0 0 0 0 0 0 0 0 0 0 0 0 0 0 0 0 127 0" result="hardAlpha"/>
<feOffset dy="0.532381"/>
<feGaussianBlur stdDeviation="0.266191"/>
<feComposite in2="hardAlpha" operator="arithmetic" k2="-1" k3="1"/>
<feColorMatrix type="matrix" values="0 0 0 0 1 0 0 0 0 1 0 0 0 0 1 0 0 0 0.1 0"/>
<feBlend mode="normal" in2="effect2_innerShadow_134_3080" result="effect3_innerShadow_134_3080"/>
<feColorMatrix in="SourceAlpha" type="matrix" values="0 0 0 0 0 0 0 0 0 0 0 0 0 0 0 0 0 0 127 0" result="hardAlpha"/>
<feOffset dy="-1.06476"/>
<feGaussianBlur stdDeviation="0.532381"/>
<feComposite in2="hardAlpha" operator="arithmetic" k2="-1" k3="1"/>
<feColorMatrix type="matrix" values="0 0 0 0 0 0 0 0 0 0.259991 0 0 0 0 0.537912 0 0 0 0.15 0"/>
<feBlend mode="normal" in2="effect3_innerShadow_134_3080" result="effect4_innerShadow_134_3080"/>
</filter>
<filter id="filter1_diii_134_3080" x="1.04122" y="2.44379e-05" width="31.7769" height="31.7486" filterUnits="userSpaceOnUse" color-interpolation-filters="sRGB">
<feFlood flood-opacity="0" result="BackgroundImageFix"/>
<feColorMatrix in="SourceAlpha" type="matrix" values="0 0 0 0 0 0 0 0 0 0 0 0 0 0 0 0 0 0 127 0" result="hardAlpha"/>
<feOffset dy="1.06476"/>
<feGaussianBlur stdDeviation="1.33095"/>
<feComposite in2="hardAlpha" operator="out"/>
<feColorMatrix type="matrix" values="0 0 0 0 0.290196 0 0 0 0 0.227451 0 0 0 0 1 0 0 0 0.25 0"/>
<feBlend mode="normal" in2="BackgroundImageFix" result="effect1_dropShadow_134_3080"/>
<feBlend mode="normal" in="SourceGraphic" in2="effect1_dropShadow_134_3080" result="shape"/>
<feColorMatrix in="SourceAlpha" type="matrix" values="0 0 0 0 0 0 0 0 0 0 0 0 0 0 0 0 0 0 127 0" result="hardAlpha"/>
<feOffset dy="1.59714"/>
<feGaussianBlur stdDeviation="1.06476"/>
<feComposite in2="hardAlpha" operator="arithmetic" k2="-1" k3="1"/>
<feColorMatrix type="matrix" values="0 0 0 0 0.874597 0 0 0 0 0.932332 0 0 0 0 1 0 0 0 0.1 0"/>
<feBlend mode="normal" in2="shape" result="effect2_innerShadow_134_3080"/>
<feColorMatrix in="SourceAlpha" type="matrix" values="0 0 0 0 0 0 0 0 0 0 0 0 0 0 0 0 0 0 127 0" result="hardAlpha"/>
<feOffset dy="0.532381"/>
<feGaussianBlur stdDeviation="0.266191"/>
<feComposite in2="hardAlpha" operator="arithmetic" k2="-1" k3="1"/>
<feColorMatrix type="matrix" values="0 0 0 0 1 0 0 0 0 1 0 0 0 0 1 0 0 0 0.1 0"/>
<feBlend mode="normal" in2="effect2_innerShadow_134_3080" result="effect3_innerShadow_134_3080"/>
<feColorMatrix in="SourceAlpha" type="matrix" values="0 0 0 0 0 0 0 0 0 0 0 0 0 0 0 0 0 0 127 0" result="hardAlpha"/>
<feOffset dy="-1.06476"/>
<feGaussianBlur stdDeviation="0.532381"/>
<feComposite in2="hardAlpha" operator="arithmetic" k2="-1" k3="1"/>
<feColorMatrix type="matrix" values="0 0 0 0 0 0 0 0 0 0.259991 0 0 0 0 0.537912 0 0 0 0.15 0"/>
<feBlend mode="normal" in2="effect3_innerShadow_134_3080" result="effect4_innerShadow_134_3080"/>
</filter>
<linearGradient id="paint0_linear_134_3080" x1="6.69571" y1="17.4753" x2="13.8773" y2="33.9046" gradientUnits="userSpaceOnUse">
<stop stop-color="#D2CEFF"/>
<stop offset="1" stop-color="#9E97FF"/>
</linearGradient>
</defs>
</svg>
