<svg width="28" height="33" viewBox="0 0 28 33" fill="none" xmlns="http://www.w3.org/2000/svg">
<path d="M23.0846 18.6835C22.1342 13.8549 26.3335 11.2756 26.6399 11.095C25.996 10.2358 25.2481 9.58639 24.4929 9.11576C21.9828 7.55062 18.9255 7.40469 17.1068 8.2055C17.0886 8.21279 17.0704 8.22192 17.0521 8.22921C15.2772 9.00448 13.2597 9.00448 11.4848 8.22921C11.4665 8.22192 11.4483 8.21279 11.43 8.2055C9.61135 7.40469 6.55406 7.55062 4.04401 9.11576C1.53396 10.6809 -0.904947 14.2106 0.331836 20.9783C1.56862 27.7459 6.0816 31.8576 6.0816 31.8576C6.0816 31.8576 8.22864 33.7128 11.067 32.476C12.8401 31.7026 13.6482 31.5694 14.0039 31.5785C14.1809 31.5822 14.3578 31.5822 14.5329 31.5785C14.8887 31.5694 15.6968 31.7044 17.4698 32.476C20.3082 33.7128 22.4553 31.8576 22.4553 31.8576C22.4553 31.8576 25.6166 28.9754 27.3732 24.0666C25.8647 23.3698 23.7067 21.8429 23.0846 18.6835Z" fill="white"/>
<path d="M13.473 7.95153C13.473 7.95153 12.6777 1.2076 20.2772 0L20.2462 0.904785C20.1203 4.63885 17.1998 7.6779 13.473 7.95153Z" fill="white"/>
</svg>
