<svg width="29" height="33" viewBox="0 0 29 33" fill="none" xmlns="http://www.w3.org/2000/svg">
<path d="M22.2047 10.9925L16.8891 16.2717L1.28516 0.385025C2.06772 -0.0874332 3.08743 -0.1604 3.99039 0.364959L22.2047 10.9925Z" fill="#00F076"/>
<path d="M22.3322 21.8353L3.98655 32.5377C2.89022 33.178 1.61878 32.9299 0.8125 32.1601L16.887 16.2734L22.334 21.8353H22.3322Z" fill="#F73448"/>
<path d="M27.6368 18.7412L22.3777 21.8095L22.3358 21.8332L16.8906 16.2713L22.2062 10.9922L22.2482 11.0159L27.6386 14.1608C29.3916 15.1841 29.3916 17.7179 27.6386 18.7412H27.6368Z" fill="#FFCA00"/>
<path d="M0.811754 32.16C0.800809 32.1491 0.789864 32.1381 0.778919 32.1272C0.304636 31.6584 0 31.0053 0 30.2465V2.65598C0 1.67275 0.51259 0.866473 1.24226 0.410432C1.25502 0.401312 1.26962 0.394015 1.28239 0.386719L16.8863 16.2734L0.811754 32.16Z" fill="#00D2FF"/>
</svg>
