<svg width="567" height="451" viewBox="0 0 567 451" fill="none" xmlns="http://www.w3.org/2000/svg">
<path d="M554.796 79.9579C545.656 73.1464 535.845 67.8995 524.741 64.9118C523.597 64.5603 522.53 64.1402 521.387 63.7887C519.244 63.0935 517.195 62.0395 515.096 61.8558C514.883 61.7717 514.661 61.8327 514.448 61.7487C509.823 61.213 505.631 59.4639 501.278 57.9971C498.069 56.8817 494.919 55.9877 491.466 56.6051C490.877 56.7194 490.177 56.2459 489.528 56.1388C487.856 56.1231 486.354 55.68 484.86 55.0918C484.647 55.0078 484.502 55.0001 484.365 54.8474C482.102 53.7094 479.952 53.1592 477.248 53.3798C474.766 53.5394 471.772 53.7447 469.389 52.1639C466.847 52.1021 464.39 51.8267 461.982 50.681C460.847 50.1845 459.465 50.1841 458.159 50.115C457.724 50.092 457.358 50.1453 456.999 50.0536C454.243 49.9078 451.548 49.9834 448.877 49.6239C443.314 48.9659 437.751 48.3079 432.128 47.4285C431.044 47.2984 430.002 46.4432 428.943 45.878C425.954 48.5565 422.427 46.6243 419.212 46.8906C419.083 46.5928 419.032 46.2264 418.826 45.9973C418.339 45.6079 417.844 45.3635 417.349 45.1191L417.042 45.3938C417.453 45.8519 417.94 46.2414 418.282 46.6232C413.479 46.66 408.745 46.7732 403.942 46.81C403.431 46.8556 402.919 46.9013 402.407 46.9469C398.653 46.4574 394.967 46.0441 391.259 47.3026C384.8 47.0337 378.457 48.5891 371.922 48.3888C370.25 48.3731 368.578 48.3573 366.993 49.3645C366.09 49.8986 364.631 49.9669 363.556 49.6918C361.764 49.2333 360.289 49.5917 358.652 50.2324C357.459 50.7512 355.984 51.1095 354.678 51.0404C351.709 50.8106 348.964 51.7564 346.288 52.7786C345.171 53.2286 343.994 53.4573 342.818 53.686C340.617 54.006 338.417 54.3259 336.148 54.5696C335.935 54.4856 335.577 54.3938 335.303 54.0884C331.03 49.9347 332.314 47.8206 335.055 44.4016C336.621 42.4479 338.75 40.8149 340.803 39.2507C343.768 37.0073 346.997 35.2143 350.038 32.9022C351.027 32.1544 352.767 32.2465 353.823 31.5751C355.937 30.2322 358.624 30.3016 360.685 28.5923C362.439 27.1577 365.075 26.8607 367.3 26.1056C368.553 25.8083 369.807 25.5109 370.992 25.1372C371.255 24.3511 371.433 23.7786 371.772 22.9238C372.84 23.3439 373.822 23.9777 374.914 23.9628C376.219 24.0318 377.557 23.5208 378.879 23.2998C380.056 23.0711 381.164 22.766 382.273 22.461C384.208 21.6906 385.637 19.5842 388.086 20.0047C388.231 20.0124 388.691 19.6003 388.776 19.3866C389.08 17.8753 390.257 17.6466 391.562 17.7157C394.539 17.8005 397.547 16.0685 400.537 18.4815C400.475 17.0235 400.508 16.4434 400.413 15.5655C404.175 15.9101 407.875 14.7966 411.276 17.6677C411.963 15.813 412.388 14.7444 412.744 13.5995C414.859 13.4932 416.693 13.2266 418.827 14.0669C421.61 15.0141 424.589 16.3356 427.674 14.5349C428.126 14.2679 429.286 14.3293 429.628 14.711C431.209 16.3221 433.281 15.7044 435.226 16.0255C437.53 16.4383 439.925 15.2558 442.026 16.6762C442.308 16.8366 443.05 16.5849 443.433 16.2416C444.352 15.4174 445.436 15.5475 446.273 16.1737C447.537 16.9679 448.596 17.533 450.036 16.5182C450.411 16.3198 451.179 16.8697 451.828 16.9767C452.758 17.2441 453.886 17.8856 454.696 17.7103C457.714 17.0699 460.412 18.231 463.228 18.5981C463.731 18.6975 464.226 18.9419 464.738 18.8962C472.108 18.4861 479.337 20.5415 486.638 20.055C487.44 20.0247 488.31 20.0707 489.172 20.2618C493.276 20.9881 497.449 21.7908 501.554 22.5171C506.665 23.4422 511.845 24.4436 516.871 25.5823C522.043 26.7288 527.036 28.4477 532.03 30.1666C539.021 32.5731 545.952 34.7581 552.526 38.0881C555.566 39.6309 558.529 41.2423 560.769 44.052C561.923 45.4951 563.299 46.8772 565.661 46.2747C565.856 45.4122 566.05 44.5497 566.168 43.7559C566.725 40.3668 566.847 36.9547 566.968 33.5426C567.026 32.5274 566.939 31.5045 566.63 30.5426C566.201 29.1379 565.328 27.8553 563.859 26.832C563.509 26.5952 563.091 26.2822 562.664 26.1141C555.107 22.1503 547.61 18.4078 539.544 15.7263C537.974 15.2068 536.471 14.7636 534.969 14.3205C530.531 13.0674 526.17 11.7456 521.655 10.5612C519.077 9.84288 516.322 9.69708 513.676 8.9025C511.098 8.18423 508.367 7.60331 505.697 7.24377C504.613 7.11374 503.606 6.91499 502.591 6.86127C498.555 6.21131 494.527 5.41632 490.491 4.76635C484.723 3.87929 479.023 3.06857 473.238 2.47155C466.583 1.82849 459.92 1.33045 453.317 1.05384C449.401 0.84663 445.46 1.07455 441.528 1.15739C438.107 1.19465 434.618 1.15551 431.258 1.4141C426.661 1.68 421.978 2.1596 417.441 2.64689C416.272 2.73051 415.148 3.32561 414.031 3.77568C412.011 4.75985 409.879 5.15615 407.635 4.96468C403.448 5.6887 399.253 6.55779 395.066 7.28177C394.477 7.39612 393.615 7.20501 393.128 6.81561C390.77 4.79971 388.665 5.99758 386.561 7.19545C386.032 7.53117 385.428 7.93557 384.891 8.41632C383.366 9.64487 381.645 10.4993 379.647 9.81179C378.649 9.46801 378.104 10.0938 377.286 10.4142C376.834 10.6812 375.887 10.7038 375.392 10.4594C374.47 10.047 373.581 9.05438 372.593 9.80218C371.835 10.3439 371.555 11.4202 370.994 12.336C368.457 10.8927 365.882 11.411 364.171 13.357C362.775 14.8833 361.308 15.0966 359.644 14.9359C357.332 14.668 355.225 14.6293 353.643 16.8731C352.766 18.2087 351.188 17.8342 349.874 17.9102C347.614 18.0088 345.422 18.1837 344.053 20.5116C343.653 21.145 342.69 21.4577 341.94 21.8544C339.008 23.5177 335.658 24.8679 333.137 26.9892C328.103 31.087 323.198 35.4825 322.358 42.5661C322.174 44.5201 321.631 46.3826 322.164 48.5201C323.29 53.0164 321.078 56.0997 316.611 57.8999C313.628 59.1968 310.773 60.7914 307.601 61.5691C307.158 61.6911 306.537 62.3856 306.597 62.607C307.266 64.8972 304.809 64.6217 304.163 65.7513C303.347 67.3082 301.905 67.0865 300.651 67.3838C299.321 67.7499 297.991 68.1159 296.661 68.4819C295.996 68.665 295.263 68.7716 294.735 69.1073C292.085 70.931 289.495 72.976 286.914 74.876C286.233 75.3491 285.595 76.3336 284.938 76.3716C282.891 76.5542 282.152 78.0425 281.267 79.5232C280.459 80.9351 279.395 81.7516 277.561 82.0183C275.429 82.4146 274.025 84.0859 273.261 86.0093C272.233 88.7189 270.643 91.1077 269.257 93.7256C267.642 96.5495 266.36 99.9002 266.742 103.412C267.178 108.526 267.614 113.641 268.126 118.686C267.157 120.381 265.589 121.098 264.02 121.815C251.704 127.346 240.466 134.388 229.612 142.324C223.845 146.528 219.881 152.283 215.839 158.106C212.581 162.952 212.352 168.25 212.047 173.616C211.885 173.899 211.808 173.967 211.724 174.181C209.136 177.463 205.677 179.462 202.14 181.529C197.633 184.055 193.33 186.809 189.429 190.167C188.509 190.991 187.461 191.517 186.404 192.189C184.666 193.333 182.313 193.791 182.011 196.539C181.909 197.042 181.22 197.66 180.623 197.92C178.39 198.82 177.489 200.591 177.441 202.697C177.342 204.438 176.551 205.56 175.325 206.659C170.939 210.863 169.397 216.237 169.433 221.985C169.396 225.183 167.814 227.427 166.155 229.739C162.941 231.242 160.002 233.051 156.685 233.821C152.038 234.957 148.52 237.971 144.412 239.863C140.296 241.9 136.497 244.754 132.782 247.394C128.991 250.103 125.414 252.895 121.759 255.757C120.848 256.436 120.133 257.489 119.358 258.321C118.031 259.924 116.848 261.534 115.589 263.213C115.197 263.701 114.584 264.251 114.474 264.9C113.534 268.632 111.297 272.151 111.356 276.227C111.342 277.753 110.747 279.249 110.443 280.761C108.057 281.798 107.815 284.768 105.266 286.087C100.102 288.651 94.9206 291.504 90.2782 295.114C88.8302 296.273 87.3138 297.357 85.8575 298.662C83.1749 301.066 80.4922 303.469 77.878 305.95C77.1115 306.636 76.4818 307.476 75.9971 308.323C70.6824 317.352 67.885 326.878 69.7639 337.305C70.2637 340.023 70.5419 342.802 68.773 345.763C66.548 346.518 63.8029 347.464 61.0579 348.41C60.2396 348.73 58.9944 348.882 58.8163 349.455C57.9342 352.172 56.0653 351.782 53.95 351.888C50.9562 352.094 47.8256 352.146 45.6983 355.016C45.2302 355.573 44.2668 355.886 43.5251 356.137C38.9383 357.495 34.6085 359.448 30.6559 362.439C27.6914 364.682 24.1799 366.315 21.2756 368.78C15.3904 373.778 9.99206 379.166 7.09692 386.577C6.67238 387.645 5.8894 388.622 5.31982 389.683C0.237274 399.743 -0.510849 410.322 1.77842 421.208C2.01065 422.239 2.39618 423.132 2.48337 424.155C3.59587 435.269 10.3742 442.683 18.5841 449.227C19.9082 450.243 21.3503 450.465 22.8584 449.526C24.5281 448.305 26.1212 447.153 27.8675 445.864C27.6165 443.886 27.0671 442.039 27.1662 440.299C27.197 438.482 29.2417 437.063 28.427 434.765C23.305 432.748 18.8458 429.312 14.6247 425.524C10.1301 421.432 8.73076 416.63 10.0847 410.737C11.0494 406.57 12.2276 402.486 14.4045 398.746C16.5047 395.075 19.0836 391.939 22.1494 389.192C26.0667 385.544 30.2492 382.347 34.4565 378.714C34.3362 378.272 34.2325 377.539 34.0687 376.585C45.9452 368.558 59.2955 364.027 72.9982 360.97C73.8955 361.817 74.5192 362.359 75.203 363.123C75.7914 363.009 76.5248 362.902 77.1132 362.788C78.81 362.368 80.1754 362.659 81.1847 364.094C81.9286 365.079 82.7658 365.705 83.9779 366.133C85.9753 366.821 87.9727 367.508 89.7755 369.058C91.2281 370.372 93.8905 370.876 95.9976 370.915C98.6931 370.839 101.057 371.474 103.312 372.757C104.652 373.482 106.009 373.918 107.698 373.643C109.165 373.43 110.82 373.736 112.254 374.103C113.688 374.469 114.84 374.676 115.998 373.501C116.381 373.157 117.259 373.058 117.916 373.02C124.733 373.381 131.555 372.36 138.293 371.553C139.171 371.454 139.973 371.423 140.843 371.469C145.528 372.226 149.988 371.808 154.198 369.412C155.476 368.68 156.168 369.298 156.394 371.71C158.178 372.314 159.944 371.971 161.673 370.971C162.653 370.368 163.71 369.697 164.758 369.171C164.416 368.789 164.143 368.483 163.724 368.17C164.184 367.758 164.575 367.27 165.095 367.079C165.684 366.965 166.332 367.072 166.989 367.034C168.91 367.79 170.281 366.699 171.584 365.531C172.811 364.433 172.595 363.112 172.456 361.723C172.265 359.967 172.066 358.356 171.875 356.6C171.321 352.28 169.574 348.478 166.855 345.134C166.042 344.072 164.77 343.423 163.566 342.85C158.888 340.712 153.861 339.573 148.725 339.083C144.314 338.631 139.886 338.47 135.459 338.308C134.153 338.239 132.823 338.605 131.51 338.681C130.486 338.773 129.454 339.009 128.448 338.81C126.067 338.466 123.738 338.488 121.385 338.946C120.575 339.121 119.619 339.289 118.834 339.029C115.701 337.845 113.093 338.943 110.887 340.645C105.203 339.544 99.7877 340.13 94.5524 341.381C91.8239 342.037 89.1284 342.112 86.5096 342.119C83.8907 342.126 81.976 339.988 80.4196 337.942C79.342 336.43 79.6628 334.629 80.2654 332.988C81.7254 329.065 83.5355 325.378 86.4646 322.478C89.0789 319.998 91.8299 317.671 94.6658 315.13C94.2119 314.16 93.8948 313.343 93.4408 312.374C94.1991 311.832 95.2804 310.725 95.7756 310.97C98.7469 312.436 100.423 309.834 102.716 309.155C103.014 309.025 103.422 308.247 103.37 307.88C103.275 307.002 102.966 306.041 103.861 305.651C104.611 305.255 105.481 305.301 106.291 305.125C107.766 304.767 109.233 304.554 110.785 304.127C112.857 303.509 114.742 303.609 116.46 305.373C116.433 304.571 116.389 304.06 116.387 302.823C118.19 304.373 119.727 305.473 120.813 306.839C121.352 307.595 120.911 308.954 120.897 310.481C123.263 312.351 126.073 314.1 129.181 315.719C131.862 317.17 134.459 318.835 137.055 320.5C140.138 322.554 143.528 324.334 147.444 324.541C149.474 324.648 151.403 325.26 153.409 325.802C157.992 327.063 162.406 328.751 167.26 329.081C168.855 329.165 170.47 330.196 171.895 330.708C173.37 330.35 174.862 329.701 176.312 329.778C181.106 329.886 185.884 330.284 190.67 330.538C193.929 330.783 197.197 330.883 200.008 328.777C200.468 328.365 201.269 328.334 202.003 328.228C205.372 327.824 208.732 327.566 212.169 327.238C213.704 327.101 214.585 328.239 215.704 329.025C216.618 329.583 217.71 329.568 218.219 328.286C218.381 328.003 218.406 327.568 218.567 327.286C218.729 327.003 219.18 326.736 219.394 326.82C222.04 327.615 223.322 324.264 225.992 324.624C229.747 325.113 232.908 323.244 235.959 322.024C236.869 320.108 234.584 320.642 234.836 318.764C236.172 317.016 237.284 314.093 241.096 313.567C241.331 315.834 238.816 316.574 238.495 318.376C239.324 319.147 240.09 318.46 240.695 318.056C241.598 317.522 242.365 316.835 242.918 316.064C246.269 310.859 247.752 305.264 246.648 299.096C246.381 297.409 246.182 295.798 246.204 294.126C246.156 291.142 245.237 288.111 244.899 285.111C244.474 281.088 242.515 278.439 238.496 277.499C238.137 277.407 237.932 277.178 237.659 276.873C237.522 276.72 237.53 276.575 237.393 276.422C237.681 275.201 238.672 275.69 239.397 275.728C241.572 275.843 243.808 276.18 246.06 276.226C246.862 276.196 247.68 275.875 248.49 275.7C248.343 274.456 248.803 274.044 250.023 274.326C251.66 273.686 253.255 273.77 254.826 274.29C253.241 275.297 251.585 274.991 250.015 274.471C249.478 274.952 249.018 275.364 248.482 275.845C249.311 276.616 249.995 277.38 251.393 277.09C253.303 276.755 255.205 276.564 257.115 276.229C256.568 275.618 256.021 275.007 255.474 274.397C256.558 274.527 257.565 274.725 258.648 274.856C258.188 275.268 257.72 275.825 257.26 276.237C258.166 276.939 259.121 276.772 260.016 276.383C259.606 275.924 259.127 275.39 258.793 274.863C259.579 275.123 260.142 275.444 260.093 276.314C260.998 277.016 262.013 277.07 262.993 276.467C266.764 276.667 270.243 275.614 273.806 274.348C275.068 273.906 276.406 273.395 277.711 273.464C282.215 273.557 286.523 273.276 290.699 271.46C293.529 270.3 296.676 269.958 299.635 269.096C301.63 268.547 303.488 267.845 304.414 265.639C304.915 264.502 306.024 264.197 307.414 264.053C313.861 263.23 316.859 260.406 318.084 254.216C318.989 249.827 319.023 245.392 318.768 240.942C318.741 240.14 318.278 239.316 318.106 238.507C317.874 237.476 317.283 236.354 317.546 235.568C318.344 233.064 317.231 230.896 316.928 228.552C316.496 225.911 314.915 224.3 312.806 223.025C310.696 221.749 308.28 220.749 306.018 219.611C308.908 218.672 308.908 218.672 311.28 219.162C313.798 219.659 316.238 220.224 318.756 220.721C320.121 221.011 321.35 221.149 322.448 219.752C322.916 219.195 324.306 219.051 325.253 219.028C326.925 219.044 328.657 219.281 330.397 219.373C334.313 219.58 338.237 219.642 342.134 218.903C343.533 218.613 345.18 219.064 346.63 219.141C348.371 219.233 350.138 220.127 351.893 218.692C352.429 218.211 353.513 218.341 354.383 218.387C359.544 218.442 364.661 217.986 369.667 216.941C373.786 216.141 377.74 214.386 382.168 214.548C383.618 214.625 385.118 213.831 386.541 213.106C388.416 212.115 390.138 211.26 392.322 211.23C392.833 211.184 393.49 211.146 393.797 210.872C396.343 208.315 399.985 208.217 403.045 206.852C406.625 205.295 410.087 204.533 413.969 205.32C415.548 205.695 417.305 205.497 418.849 205.215C419.505 205.177 420.212 204.269 420.543 203.559C421.121 202.353 422.059 202.475 423.023 202.163C423.765 201.911 424.531 201.224 424.786 200.583C425.21 199.514 425.353 198.285 425.564 197.133C426.22 192.003 426.654 186.935 426.218 181.82C426.191 181.019 426.241 180.149 426.307 178.988C428.789 178.829 430.945 177.997 432.777 176.494C434.071 175.472 435.538 175.258 437.142 175.198C440.196 175.214 443.19 175.009 446.216 174.223C448.212 173.674 450.576 174.308 452.538 174.339C455.214 173.317 457.678 172.211 459.613 171.441C461.345 171.678 459.94 173.349 461.475 173.212C462.576 173.052 463.821 172.9 463.887 171.74C463.909 170.068 463.992 168.618 465.424 167.748C467.75 166.489 470.161 165.016 473.037 165.605C473.396 165.697 473.694 165.567 474.274 165.598C476.256 162.72 477.743 159.599 478.027 155.904C478.552 149.24 479 142.645 478.723 136.012C478.642 133.607 476.225 127.515 474.507 125.751C472.858 124.064 471.063 122.369 469.261 120.819C468.774 120.429 468.133 120.177 467.416 119.994C466.486 119.726 465.249 119.734 464.48 119.184C462.806 117.931 461.217 116.465 459.696 115.076C460.342 113.946 461.212 113.992 461.989 114.397C465.387 116.031 469.429 115.3 472.819 117.079C473.451 117.476 474.62 117.393 475.361 117.141C477.067 116.577 478.558 115.928 479.994 117.532C480.268 117.837 481.368 117.677 481.956 117.563C482.843 117.319 483.831 116.571 484.701 116.617C486.297 116.701 487.815 116.854 489.411 116.939C490.784 117.084 492.013 117.222 493.31 117.436C494.104 117.551 494.711 118.383 495.548 119.009C496.928 117.773 498.496 117.056 500.578 117.53C502.234 117.835 503.991 117.638 505.663 117.653C506.533 117.699 507.428 117.31 508.213 117.57C512.446 118.594 516.718 117.656 520.872 117.512C523.422 117.429 525.929 116.834 528.42 116.53C529.298 116.431 530.193 116.042 530.91 116.225C533.206 116.783 535.354 116.097 537.426 115.479C543.334 113.9 549.32 112.253 554.269 108.369C556.322 106.805 557.658 105.057 557.875 102.523C558.125 99.4087 558.597 96.2334 558.77 93.1877C558.845 91.8825 558.851 90.5008 558.78 89.1878C558.736 88.6763 558.693 88.1649 558.572 87.7221C558.891 84.6841 557.453 81.8441 554.796 79.9579ZM381.537 21.3311C381.605 21.4074 381.819 21.4915 381.887 21.5679C382.016 21.8656 382.076 22.087 382.128 22.4534C381.846 22.293 381.632 22.2089 381.427 21.9799C381.359 21.9035 381.52 21.6212 381.537 21.3311ZM366.914 25.2124C366.983 25.2888 367.204 25.2278 367.196 25.3728C367.256 25.5942 367.248 25.7392 367.232 26.0293C367.18 25.6629 367.043 25.5102 366.914 25.2124ZM29.5323 382.163C28.9191 382.713 28.2293 383.331 27.4628 384.018C27.2825 383.353 27.0856 382.979 27.1705 382.766C27.5101 381.911 28.1233 381.361 28.9852 381.552C29.1986 381.636 29.5323 382.163 29.5323 382.163ZM55.9868 364.652C55.5517 364.629 55.0482 364.53 54.6214 364.362C54.553 364.285 54.6462 363.926 54.671 363.491C55.1744 363.591 55.6095 363.614 56.0364 363.782C56.1732 363.935 56.0033 364.362 55.9868 364.652ZM140.457 356.538C139.332 357.133 138.325 356.935 137.266 356.369C139.201 355.599 139.27 355.675 140.457 356.538ZM127.694 355.863C127.626 355.787 127.788 355.504 127.864 355.436C128.461 355.176 129.211 354.779 129.714 354.879C132.018 355.292 134.314 355.85 136.686 356.339C134.128 356.567 131.646 356.727 129.018 356.879C128.728 356.863 128.293 356.84 128.011 356.68C127.875 356.527 127.754 356.084 127.694 355.863ZM124.315 355.175C124.315 355.175 124.673 355.267 124.444 355.473L124.315 355.175ZM129.988 369.222C130.278 369.237 130.568 369.253 130.85 369.413C130.85 369.413 130.834 369.703 130.825 369.848C130.535 369.833 130.245 369.818 129.963 369.657C129.895 369.581 129.98 369.367 129.988 369.222ZM224.274 299.876C222.843 300.746 221.403 301.761 219.912 302.409C215.573 304.507 211.183 306.239 206.157 305.1C205.363 304.985 204.417 305.008 203.675 305.259C201.808 306.106 200.068 306.014 198.122 305.693C197.115 305.494 196.092 305.586 195 305.6C186.249 306.01 177.503 305.038 168.936 303.494C162.459 302.279 155.651 301.773 149.826 298.046C149.057 297.496 147.82 297.504 146.89 297.236C143.902 296.06 140.745 295.311 137.174 292.867C143.031 290.922 147.968 289.802 153.025 289.124C156.104 288.705 159.175 288.431 162.237 288.302C165.879 288.203 169.453 288.029 172.994 288.434C176.68 288.848 180.357 289.406 184.126 288.369C185.601 288.011 187.445 288.835 189.092 289.286C189.878 289.546 190.578 290.019 191.5 290.432C193.383 289.295 195.225 288.883 197.384 289.289C203.844 290.794 210.414 291.651 216.85 293.592C218.497 294.042 220.153 294.348 221.791 294.944C223.917 295.929 225.072 297.372 224.274 299.876ZM140.31 286.341C140.395 286.128 140.556 285.845 140.641 285.632C140.855 285.716 141.213 285.807 141.427 285.891C141.197 286.097 141.035 286.38 140.737 286.51C140.668 286.433 140.455 286.349 140.31 286.341ZM164.393 282.379C164.614 282.318 164.913 282.188 165.134 282.127L165.408 282.433C165.186 282.494 164.888 282.623 164.666 282.684C164.666 282.684 164.529 282.532 164.393 282.379ZM198.371 269.411C194.739 270.601 191.699 269.058 188.424 269.103C187.767 269.141 186.973 269.027 186.377 269.286C184.272 270.484 181.891 270.14 179.869 269.887C177.557 269.619 175.313 269.428 173.301 270.267C169.653 271.747 165.975 271.189 162.333 271.287C159.783 271.37 157.241 271.308 154.674 271.682C150.785 272.276 146.956 273.092 143.128 273.907C142.539 274.022 142.208 274.732 141.816 275.22C141.586 275.426 141.34 275.922 141.195 275.915C138.822 275.425 136.966 277.364 134.799 277.104C132.12 276.889 129.75 277.636 127.243 278.231C126.655 278.346 125.998 278.383 125.128 278.337C125.337 275.948 126.862 274.72 128.241 273.483C134.058 268.409 140.148 263.64 147.103 260.298C152.634 257.681 158.234 255.141 163.637 252.227C166.339 250.769 168.93 249.961 172.036 250.344C174.061 251.833 176.528 253.2 177.608 255.948C177.805 256.322 178.216 256.78 178.642 256.948C184.202 260.225 190.322 262.585 196.451 264.8C197.237 265.06 198.115 264.961 198.917 264.931C202.918 264.924 203.985 265.344 208.512 268.857C205.015 268.963 201.414 268.336 198.371 269.411ZM405.321 49.4286C405.969 49.5356 406.618 49.6427 407.266 49.7498C407.105 50.0322 407.148 50.5436 407.003 50.5359C406.415 50.6503 405.766 50.5432 405.109 50.5812C405.143 50.0011 405.252 49.3522 405.321 49.4286ZM411.993 54.8731C412.061 54.9494 411.976 55.1631 411.968 55.3081C411.746 55.3692 411.372 55.5675 411.158 55.4835C410.731 55.3155 410.389 54.9337 410.039 54.697C410.201 54.4145 410.516 53.9948 410.516 53.9948C411.011 54.2392 411.429 54.5523 411.993 54.8731ZM383.877 50.476L383.707 50.9035L383.434 50.5981L383.877 50.476ZM277.633 102.461C279.818 98.5757 282.285 94.8513 285.589 91.7531C288.28 89.2043 291.245 86.9609 294.217 84.5724C294.6 84.229 295.112 84.1834 295.564 83.9163C300.652 81.4216 305.595 78.9193 310.538 76.4169C310.604 75.2566 310.722 74.4628 310.856 73.3789C313.314 73.6544 315.899 74.2276 317.362 71.541C317.523 71.2586 318.257 71.152 318.768 71.1063C320.679 70.771 322.529 70.2143 324.346 70.2377C327.766 70.2004 331.025 70.4456 333.854 73.141C335.785 74.9888 338.483 76.1499 340.338 78.0663C342.534 80.3646 345.188 81.0142 347.895 82.0302C349.175 82.5343 350.549 82.6797 351.821 83.3289C354.861 84.8717 357.815 86.6282 360.863 88.026C367.523 91.1423 373.944 94.6096 381.02 96.8024C383.734 97.6733 386.525 98.4756 389.31 100.66C387.912 100.949 386.615 100.735 386.147 101.292C383.729 104.146 381.466 103.008 379.168 101.214C378.468 100.74 377.623 100.259 376.821 100.29C376.019 100.32 375.184 100.93 374.136 101.457C371.608 99.8684 368.691 100.005 365.552 100.203C359.778 100.697 353.977 100.39 348.279 100.816C345.942 100.983 343.837 102.181 341.396 101.616C340.825 101.44 339.998 101.905 339.538 102.317C337.945 103.47 336.172 103.958 334.174 103.27C332.962 102.842 331.854 103.147 330.737 103.597C329.842 103.986 328.81 104.223 327.787 104.314C324.487 104.794 321.058 104.976 317.741 105.746C315.532 106.211 313.469 106.684 311.208 106.783C309.895 106.859 308.215 106.988 307.371 107.743C305.685 109.254 303.852 109.521 301.796 109.849C299.963 110.115 298.25 110.825 296.4 111.382C294.251 112.068 292.231 113.052 290.031 113.372C287.831 113.692 285.647 113.722 283.807 115.37C282.734 116.332 281.139 116.247 280.045 115.026C277.019 111.956 274.394 108.253 277.633 102.461ZM398.739 111.341C398.816 111.273 399.166 111.509 399.379 111.593C399.303 111.662 399.149 111.799 399.004 111.792C398.783 111.853 398.492 111.837 398.202 111.822C398.356 111.685 398.586 111.479 398.739 111.341ZM365.724 109.958C365.792 110.034 365.929 110.187 365.921 110.332C365.921 110.332 365.699 110.393 365.622 110.462C365.554 110.386 365.494 110.164 365.425 110.088C365.425 110.088 365.647 110.027 365.724 109.958ZM353.748 110.779C353.869 111.222 354.066 111.596 354.041 112.031C354.024 112.321 353.794 112.527 353.633 112.81C353.146 112.42 352.651 112.176 352.164 111.786C352.249 111.573 352.333 111.359 352.41 111.29C352.93 111.1 353.373 110.978 353.748 110.779ZM309.332 120.576C308.122 121.385 307.14 120.751 306.089 120.041C307.241 120.247 308.248 120.446 309.332 120.576ZM288.79 115.998L288.467 116.562C288.399 116.486 288.339 116.265 288.27 116.188C288.424 116.051 288.645 115.99 288.79 115.998ZM311.405 162.071C314.262 161.714 316.363 163.134 318.456 164.699C313.921 166.423 312.137 165.82 311.405 162.071ZM303.993 158.115C302.143 158.672 301.185 157.603 300.151 156.603C302.555 155.275 304.647 156.841 306.798 157.391C307.088 157.406 307.269 158.07 307.526 158.666C306.083 158.444 304.88 157.871 303.993 158.115ZM250.995 144.91L250.696 145.04C250.765 145.116 250.781 144.826 250.995 144.91ZM224.742 170.36C226.985 165.46 230.134 161.263 234.735 158.379C236.166 157.509 237.333 156.188 238.559 155.09C239.095 154.609 239.487 154.12 240.092 153.716C245.213 150.641 250.334 147.566 255.524 144.568C257.407 143.431 259.427 142.447 261.233 141.379C262.691 136.219 263.892 135.555 268.366 137.465C268.511 137.472 268.648 137.625 268.793 137.633C269.868 137.908 270.208 137.053 270.539 136.343C272.348 136.512 274.189 136.1 276.023 135.833C277.268 135.681 278.94 135.697 279.914 136.476C282.631 138.583 286.259 140.012 286.983 143.905C290.617 143.952 293.435 145.555 296.329 147.091C301.7 149.848 302.537 150.474 304.274 153.184C302.714 153.756 301.154 154.328 299.654 155.122C298.827 155.587 299.519 156.206 299.853 156.733C298.747 158.274 297.332 158.854 295.42 157.953C294.924 157.708 294.582 157.326 294.079 157.227C293.866 157.143 293.559 157.418 293.192 157.471C292.768 158.54 294.595 159.655 292.781 160.868C292.277 160.768 291.62 160.806 291.057 160.486C287.437 158.912 283.622 158.201 279.783 157.925C278.478 157.856 277.241 157.864 276.663 159.07C275.686 160.909 273.603 160.435 272.385 161.389C270.341 162.808 268.88 161.64 267.172 160.968C266.891 160.807 266.447 160.929 266.157 160.914C265.552 161.318 265.024 161.654 264.419 162.058C263.738 162.532 263.056 163.005 262.443 163.554C260.603 165.202 259.785 165.523 257.531 164.24C255.071 162.728 253.092 162.987 251.023 164.841C250.64 165.184 250.256 165.528 249.575 166.001C244.762 164.946 239.962 166.219 235.213 167.859C233.431 168.492 231.718 169.202 229.936 169.835C228.155 170.468 226.381 170.956 224.6 171.589C224.794 170.727 224.734 170.505 224.742 170.36ZM295.829 167.357C295.094 166.227 294.29 165.021 293.144 163.433C294.662 163.586 295.746 163.716 296.684 163.838C298.294 162.396 299.871 161.534 301.733 163.305L297.978 166.671C297.773 166.442 297.499 166.136 297.294 165.907C296.834 166.319 296.298 166.8 295.829 167.357ZM289.276 166.21C288.866 165.752 288.455 165.294 288.045 164.836C289.29 164.684 289.359 164.76 289.276 166.21ZM279.853 168.185C279.615 168.536 278.318 168.322 277.61 167.993C276.397 167.565 275.202 166.848 273.716 166.114C275.838 164.626 277.315 165.505 278.784 166.528C279.271 166.917 280.653 166.918 279.853 168.185ZM260.347 215.667C261.617 215.079 262.769 215.286 264.161 216.378C262.295 217.224 261.228 216.804 260.347 215.667ZM183.256 219.37C186.465 215.394 190.023 211.655 193.582 207.915C196.374 204.863 199.432 202.261 202.968 200.193C204.17 199.529 205.166 198.636 206.231 197.82C209.272 195.508 212.639 193.868 216.306 193.334C218.289 195.549 220.724 197.496 222.042 199.893C223.549 202.809 226.654 203.192 228.646 205.261C228.851 205.49 229.124 205.796 229.406 205.956C229.97 206.277 230.67 206.75 231.25 206.781C234.022 206.637 236.03 208.416 238.463 209.126C239.752 209.486 241.04 209.845 242.406 210.135C245.205 210.792 248.327 210.885 250.727 212.176C253.476 213.703 256.862 213.009 259.442 214.964C259.723 215.125 259.928 215.354 260.134 215.583C257.774 217.422 255.379 218.604 252.391 217.428C250.322 219.282 248.146 219.167 245.824 217.808C244.696 217.166 243.747 215.952 242.196 216.379C239.557 219.294 239.488 219.218 236.388 217.454C235.825 217.133 235.253 216.957 234.468 216.698C234.103 217.988 233.977 218.926 233.621 220.071C228.611 218.643 223.608 220.923 218.683 219.281C218.003 220.991 216.999 222.029 215.242 222.226C212.385 222.584 209.391 222.79 206.723 223.667C205.018 224.231 203.474 224.513 201.835 223.917C200.265 223.398 198.694 222.878 197.047 222.428C195.019 223.557 192.862 224.388 192.338 227.197C190.188 226.647 188.25 226.181 186.245 225.638C184.307 225.172 182.279 226.301 180.222 225.392C180.507 222.934 181.92 221.118 183.256 219.37ZM263.105 231.087C261.469 231.728 260.07 232.017 258.823 230.933C260.161 230.422 261.508 229.766 263.105 231.087ZM256.999 227.2C257.007 227.055 256.939 226.978 256.879 226.757C256.955 226.688 257.109 226.551 257.177 226.627C257.322 226.635 257.459 226.788 257.527 226.864L256.999 227.2ZM248.314 226.449C248.392 227.617 247.651 227.869 247.002 227.762C246.14 227.571 245.065 227.296 245.668 225.655C246.598 225.922 247.528 226.19 248.314 226.449ZM242.337 227.951C241.833 227.852 241.406 227.684 241.048 227.592C241.056 227.447 241.141 227.234 241.218 227.165C241.516 227.035 241.883 226.982 242.096 227.066C242.241 227.074 242.216 227.509 242.337 227.951ZM235.195 226.919C235.392 227.293 235.104 228.514 234.882 228.575C233.995 228.819 233.057 228.697 231.667 228.842C232.099 227.628 232.157 226.613 232.685 226.277C233.452 225.59 234.596 225.942 235.195 226.919ZM227.666 228.848C227.581 229.062 227.129 229.329 226.916 229.245C226.199 229.061 225.49 228.733 224.85 228.481C224.943 228.122 225.036 227.763 225.13 227.405C225.847 227.588 226.64 227.703 227.349 228.031C227.494 228.039 227.682 228.558 227.666 228.848ZM220.45 229.121C220.365 229.335 220.187 229.907 220.118 229.831C219.683 229.808 219.256 229.64 218.829 229.472C219.204 229.273 219.579 229.075 220.099 228.884C220.168 228.96 220.45 229.121 220.45 229.121ZM218.676 229.609C218.49 230.326 218.235 230.968 218.125 231.616C216.76 231.326 215.471 230.967 213.679 230.508C215.467 228.494 216.925 228.425 218.676 229.609ZM210.308 229.675C210.198 230.324 210.02 230.897 209.902 231.69C209.262 231.438 208.758 231.339 208.485 231.034C208.006 230.499 207.911 229.621 208.652 229.37C209.027 229.171 209.659 229.568 210.308 229.675ZM199.079 232.718C198.849 232.924 198.542 233.199 198.397 233.191C197.826 233.015 197.33 232.771 196.835 232.526C197.424 232.412 198.012 232.298 198.6 232.183C198.745 232.191 198.942 232.565 199.079 232.718ZM179.334 229.491L178.907 229.323L179.137 229.117L179.334 229.491ZM186.468 235.76C186.476 235.615 186.485 235.47 186.561 235.401L187.005 235.279C186.783 235.34 186.553 235.546 186.468 235.76ZM263.445 276.2C263.393 275.834 263.273 275.391 263.221 275.025C263.511 275.04 263.801 275.055 264.091 275.071C263.845 275.567 263.683 275.849 263.445 276.2ZM258.774 268.825C258.262 268.871 257.605 268.909 257.093 268.955C256.948 268.947 256.743 268.718 256.743 268.718C256.828 268.504 256.998 268.077 257.143 268.084C257.655 268.039 258.303 268.146 258.738 268.169C258.798 268.39 258.79 268.535 258.774 268.825ZM286.395 255.085C286.182 255.001 285.823 254.909 285.61 254.825C285.61 254.825 285.626 254.535 285.703 254.467C285.993 254.482 286.283 254.497 286.505 254.436C286.497 254.581 286.412 254.795 286.395 255.085ZM307.3 253.282C306.5 254.549 305.315 254.922 303.813 254.479C304.517 252.335 304.517 252.334 306.906 252.534C306.975 252.61 307.095 253.053 307.3 253.282ZM304.552 247.9C301.457 248.609 301.456 248.609 299.661 250.768C298.963 251.531 298.546 252.455 297.848 253.218C297.457 253.707 296.92 254.187 296.323 254.447C296.102 254.508 295.393 254.179 295.265 253.882C294.663 251.668 293.851 250.606 292.102 250.659C290.575 250.651 289.1 251.01 287.489 251.215C281.851 251.863 276.446 253.54 270.686 252.508C269.892 252.394 269.006 252.638 268.196 252.813C265.705 253.118 263.138 253.491 260.58 253.719C259.044 253.856 257.364 253.985 256.015 253.405C253.318 252.244 250.682 252.541 247.935 252.25C243.157 251.852 238.371 251.599 233.61 250.91C229.062 250.306 224.531 249.412 219.931 248.441C216.552 247.753 213.164 247.21 210.039 245.881C206.061 244.216 202.075 242.696 197.987 241.679C197.338 241.572 196.553 241.312 196.219 240.786C195.218 239.205 193.606 239.411 192.088 239.258C191.508 239.227 190.944 238.906 189.45 238.318C192.332 237.525 194.25 237.045 196.169 236.564C197.2 236.328 198.241 235.947 199.179 236.069C199.973 236.184 200.656 236.947 201.57 237.505C201.439 235.97 201.566 235.032 202.948 235.032C203.459 234.986 203.963 235.086 204.398 235.109C206.289 233.827 208.465 233.942 210.597 233.546C213.24 233.104 215.867 232.952 218.134 231.471C219.439 231.54 220.736 231.754 221.981 231.602C228.795 230.726 235.525 230.064 242.418 230.356C245.847 230.174 249.284 229.846 252.696 229.954C254.658 229.985 256.722 229.513 258.541 230.773C257.646 231.162 256.674 231.619 255.779 232.009C256.882 233.085 258.204 232.864 259.509 232.933C264.295 233.186 269.081 233.44 273.3 235.99C275.127 237.105 277.218 237.434 278.691 235.839C280.68 236.672 282.302 237.558 284.086 238.161C288.021 239.315 292.049 240.11 295.983 241.264C299.62 242.547 302.873 244.174 304.552 247.9ZM269.739 215.509C269.679 215.288 269.619 215.066 269.635 214.776C269.925 214.791 270.139 214.876 270.429 214.891L270.549 215.334C270.25 215.463 269.96 215.448 269.739 215.509ZM278.588 217.214C278.298 217.198 277.939 217.107 277.649 217.091C277.726 217.023 277.811 216.809 277.888 216.74C278.178 216.756 278.536 216.847 278.826 216.863C278.741 217.076 278.733 217.221 278.588 217.214ZM278.492 211.244C280.555 210.772 280.555 210.772 281.803 211.856C280.651 211.649 280.002 211.542 278.492 211.244ZM289.473 212.553C292.568 211.844 295.189 213.073 297.827 214.013C292.914 214.699 291.839 214.424 289.473 212.553ZM303.065 219.091C302.767 219.22 302.4 219.274 302.11 219.258C301.897 219.174 301.768 218.877 301.563 218.647C301.861 218.518 302.236 218.319 302.45 218.403C302.808 218.495 302.86 218.862 303.065 219.091ZM303.1 214.656C302.656 214.778 302.076 214.747 301.641 214.724C301.496 214.716 301.376 214.274 301.247 213.976C301.981 213.869 302.646 213.686 303.601 213.518C303.346 214.16 303.321 214.595 303.1 214.656ZM308.022 215.062L308.116 214.703L308.397 214.863L308.022 215.062ZM330.456 214.503C330.227 214.709 329.997 214.915 329.775 214.976C329.698 215.045 329.501 214.671 329.296 214.442C329.595 214.312 329.885 214.327 330.183 214.198L330.456 214.503ZM336.43 215.619C336.353 215.688 336.063 215.672 335.995 215.596C335.858 215.443 335.874 215.153 335.746 214.856C336.036 214.871 336.326 214.886 336.616 214.902C336.531 215.115 336.515 215.405 336.43 215.619ZM353.071 214.608C357.096 214.167 360.602 213.916 364.263 214.764C359.684 215.977 356.119 216.006 353.071 214.608ZM367.64 214.216C367.35 214.2 367.137 214.116 366.855 213.956C367.153 213.826 367.375 213.765 367.673 213.635C367.818 213.643 367.963 213.651 368.177 213.735C367.947 213.941 367.785 214.223 367.64 214.216ZM414.149 200.893C413.194 201.061 412.487 201.969 411.516 202.427C410.621 202.816 409.641 203.418 408.694 203.441C405.487 203.562 402.332 204.05 399.228 204.904C396.048 205.827 392.944 206.681 389.849 207.39C388.152 207.809 385.942 207.038 385.426 209.702C383.713 210.411 382.051 211.487 380.224 210.372C378.817 210.807 379.043 213.219 377.013 213.111C376.02 211.386 374.653 209.859 374.93 207.546C375.688 207.004 376.446 206.462 377.204 205.921C375.541 205.76 373.954 205.531 372.35 205.591C371.838 205.637 371.293 206.263 370.765 206.598C371.296 207.499 371.766 208.179 372.16 208.927C372.228 209.003 371.998 209.209 371.837 209.492C367.786 210.368 363.698 209.352 359.536 209.641C359.372 208.687 359.337 208.03 359.225 207.442C357.014 206.671 355.148 207.518 353.349 208.441C354.075 208.479 355.03 208.311 354.947 209.762C354.145 209.792 353.335 209.967 352.61 209.929C352.32 209.914 352.063 209.318 351.789 209.013L352.991 208.349C350.175 207.982 347.428 207.691 344.536 207.393C343.094 207.171 341.55 207.453 340.319 206.078C340.514 205.216 340.777 204.43 340.963 203.712C336.697 203.268 332.524 202.466 328.536 204.8C327.335 205.464 325.578 205.662 324.612 204.738C323.228 203.501 321.829 203.791 320.234 203.706C317.41 203.484 314.425 203.545 311.812 202.17C310.966 201.689 309.798 201.772 308.783 201.719C307.477 201.65 306.087 201.794 304.713 201.649C301.463 201.259 298.357 200.876 295.199 200.127C291.973 199.302 288.552 199.339 285.173 198.651C279.498 197.405 273.713 196.808 268.03 195.707C264.002 194.912 260.068 193.759 256.133 192.605C251.703 191.207 247.435 189.526 243.158 187.991C241.092 187.227 239.027 186.463 237.232 184.768C237.487 184.127 237.733 183.631 237.988 182.989C236.393 182.905 234.789 182.966 232.759 182.858C233.457 182.095 233.78 181.53 234.078 181.401C238.383 179.883 242.696 178.22 247.062 176.923C251.128 175.757 255.392 174.964 259.511 174.164C262.675 173.531 266.01 173.707 268.685 171.449C269.221 170.968 270.373 171.174 271.107 171.068C273.665 170.839 276.224 170.611 278.723 170.161C279.823 170.001 280.956 169.261 281.867 168.582C283.009 167.697 282.136 166.414 282.202 165.254C282.219 164.964 282.526 164.689 282.925 164.056C284.376 164.133 286.039 164.293 287.711 164.309C287.467 166.042 287.604 166.195 289.079 165.836C291.095 167.47 293.254 167.875 295.641 166.838C296.382 166.586 297.116 166.48 297.858 166.228C299.838 167.206 301.828 168.038 304.104 167.649C304.811 166.741 304.195 166.054 303.572 165.512C302.674 164.664 303.433 164.123 303.764 163.413C303.124 163.161 302.483 162.909 301.843 162.657C301.92 162.588 301.996 162.519 302.141 162.527C306.43 161.299 306.643 161.383 309.277 164.941C309.611 165.468 310.15 166.224 310.73 166.254C313.819 166.927 316.96 167.966 320.062 165.875C324.032 167.686 328.271 167.328 332.468 167.696C333.755 166.818 335.112 167.254 336.409 167.468C340.437 168.263 344.465 169.058 348.424 169.776C350.583 170.181 352.988 170.09 354.901 170.992C358.939 172.878 363.257 173.689 367.745 174.072C368.248 174.171 368.76 174.125 369.255 174.37C375.929 175.959 382.534 177.473 389.2 179.207C399.663 181.943 409.787 185.533 417.786 193.23C418.128 193.612 418.631 193.711 418.981 193.948C419.04 198.024 417.611 200.131 414.149 200.893ZM412.034 160.122C411.736 160.252 411.438 160.382 411.148 160.366C411.088 160.145 411.104 159.855 411.044 159.634C411.334 159.649 411.624 159.664 411.991 159.611C412.051 159.832 412.111 160.054 412.034 160.122ZM431.317 171.471C430.959 171.379 430.609 171.143 430.25 171.051C430.327 170.982 430.48 170.845 430.633 170.707C430.992 170.799 431.419 170.967 431.777 171.059C431.624 171.196 431.386 171.547 431.317 171.471ZM438.731 162.626C438.441 162.611 438.151 162.595 437.861 162.58C437.861 162.58 437.801 162.359 437.809 162.213C438.03 162.152 438.397 162.099 438.619 162.038C438.611 162.183 438.671 162.405 438.731 162.626ZM458.672 161.135C458.511 161.418 458.417 161.776 458.196 161.837C457.752 161.959 457.164 162.074 456.729 162.051C456.371 161.959 456.037 161.432 455.84 161.058C455.772 160.982 456.24 160.425 456.461 160.364C457.118 160.326 457.767 160.433 458.27 160.532C458.544 160.838 458.749 161.067 458.672 161.135ZM466.116 159.42C465.358 159.962 464.6 160.503 463.705 160.892C463.483 160.953 463.056 160.785 462.851 160.556C462.714 160.404 462.824 159.755 462.969 159.763C463.796 159.297 464.682 159.053 465.577 158.664C465.851 158.969 465.911 159.191 466.116 159.42ZM460.885 140.159C462.015 142.037 463.749 143.511 465.254 145.191C466.074 146.107 466.903 146.878 467.647 147.863C469.059 149.902 468.62 152.497 466.233 153.535C464.29 154.45 462.39 155.877 459.958 155.166C459.241 154.983 458.277 155.296 457.459 155.616C455.532 156.241 453.666 157.088 451.731 157.859C451.153 159.065 450.575 160.27 449.921 161.545C448.309 161.751 446.765 162.033 445.299 162.246C444.775 165.055 444.4 165.253 441.94 163.741C442.754 160.948 446.287 161.498 447.757 158.667C444.465 159.002 441.608 159.36 438.759 159.573C435.33 159.755 431.885 160.227 428.558 159.906C424.795 159.561 421.219 158.499 417.33 159.093C416.597 159.2 415.674 158.788 414.813 158.596C413.302 158.298 411.868 157.932 410.281 157.702C403.2 156.891 396.008 156.729 388.959 155.337C384.786 154.535 380.537 153.801 376.364 152.998C374.35 152.601 372.413 152.134 370.391 151.882C360.502 150.559 350.968 148.09 341.299 145.47C336.357 144.117 331.432 142.474 326.644 140.985C321.283 139.319 315.77 137.791 311.166 134.347C310.26 133.644 308.963 133.43 307.904 132.865C304.856 131.467 301.74 129.993 298.547 128.588C298.758 127.435 298.953 126.573 299.071 125.779C299.274 124.771 299.468 123.909 299.586 123.115C298.749 122.489 298.262 122.099 297.707 121.634C300.085 120.741 300.162 120.672 301.639 121.551C303.603 122.818 305.601 123.506 307.878 123.117C309.421 122.835 309.769 121.835 309.263 120.499C309.984 118.065 311.654 116.844 314.187 117.05C314.768 117.081 315.339 117.257 315.988 117.364C316.763 116.532 317.581 116.212 318.708 116.853C319.272 117.174 320.194 117.586 320.5 117.312C322.698 115.755 324.184 116.488 325.834 118.176C327.004 119.329 327.951 119.306 328.614 117.887C329.515 116.116 330.971 114.811 332.482 115.109C334.35 115.499 335.602 113.965 337.052 114.042C338.026 114.821 338.795 115.37 339.076 115.531C343.075 114.288 346.348 113.006 349.773 115.442C350.824 116.152 351.727 115.618 352.434 114.71C352.765 114 353.165 113.367 353.496 112.657C355.808 112.925 358.052 113.116 360.364 113.384C362.677 113.652 365.041 114.286 367.367 113.027C367.742 112.829 368.544 112.798 368.749 113.028C370.33 114.639 372.016 113.128 373.543 113.136C376.384 113.068 379.351 112.061 381.761 114.443C382.034 114.749 382.973 114.871 383.203 114.665C384.804 113.368 386.454 115.055 388.227 114.567C388.16 110.636 384.441 110.803 382.271 109.306C384.07 108.383 385.416 107.727 387.337 108.483C389.693 109.262 390.089 111.247 390.647 112.95C396.319 112.959 401.236 114.746 406.282 116.832C407.048 116.145 407.678 115.305 408.573 114.916C409.399 114.451 410.491 114.436 411.378 114.192C412.062 114.956 412.83 115.505 413.999 115.422C413.315 114.658 412.546 114.108 411.523 114.2C410.489 113.199 409.353 112.703 407.887 112.916C407.375 112.962 406.743 112.565 406.026 112.381C408.605 109.245 408.528 109.314 411.27 110.986C414.011 112.658 416.922 113.904 420.299 113.355C421.399 113.195 422.696 113.409 423.092 115.394C421.71 115.393 420.473 115.401 419.16 115.477C417.633 115.469 416.183 115.392 414.656 115.384C415.64 117.254 417.202 117.919 419.14 118.385C424.952 119.783 430.67 121.541 435.641 124.931C438.206 123.321 440.28 123.94 442.211 125.788C443.314 126.865 444.501 127.728 445.833 128.598C448.635 130.492 451.59 132.249 454.468 134.074C457.209 135.746 459.285 137.602 460.885 140.159ZM393.57 102.485C394.014 102.363 394.465 102.096 394.534 102.172C394.807 102.478 395.004 102.852 395.269 103.302C394.971 103.432 394.596 103.63 394.383 103.546C394.109 103.241 393.912 102.867 393.57 102.485ZM430.839 116.022C430.916 115.953 431.077 115.671 431.146 115.747C431.359 115.831 431.564 116.06 431.778 116.144C431.701 116.213 431.616 116.427 431.471 116.419C431.258 116.335 431.053 116.106 430.839 116.022ZM438.171 104.772L437.975 104.398L438.401 104.566L438.171 104.772ZM441.951 104.827C441.806 104.819 441.66 104.811 441.515 104.804C441.669 104.666 441.83 104.384 441.975 104.392C442.265 104.407 442.479 104.491 442.761 104.651C442.471 104.636 442.172 104.766 441.951 104.827ZM443.136 104.453C443.136 104.453 443.136 104.453 443.289 104.316C443.366 104.247 443.511 104.255 443.656 104.262L443.136 104.453ZM473.533 110.935C473.243 110.919 472.8 111.041 472.731 110.965C472.329 110.362 471.935 109.614 471.533 109.01C472.165 109.408 472.874 109.736 473.506 110.133C473.651 110.141 473.55 110.645 473.533 110.935ZM542.606 107.534C543.397 106.412 544.112 105.359 544.835 104.161C545.428 106.52 545.121 106.794 542.606 107.534ZM548.744 100.658C547.586 101.833 546.214 102.924 544.843 104.016C542.164 103.801 539.657 104.396 536.786 106.28C539.082 106.838 540.661 107.213 542.384 107.595C541.933 107.862 541.558 108.06 541.183 108.259C535.6 110.509 529.604 111.065 524.012 113.46C522.819 113.979 521.308 113.681 519.927 113.68C515.696 113.893 511.446 113.159 507.234 114.318C506.791 114.44 506.211 114.409 505.792 114.096C501.71 111.698 496.606 114.483 492.625 111.581C492.557 111.505 492.335 111.566 492.114 111.627C489.998 111.733 487.959 111.771 485.913 111.953C485.546 112.007 485.256 111.991 484.889 112.045C483.721 112.128 482.475 112.281 481.496 112.883C479.527 114.234 478.042 113.501 476.001 112.302C476.425 111.233 476.85 110.165 477.343 109.172C476.412 108.905 475.329 108.775 474.407 108.362C473.135 107.713 472.171 108.026 471.175 108.919C467.257 107.475 462.796 107.894 459.234 105.305C458.747 104.915 457.562 105.289 456.752 105.464C455.797 105.632 454.834 105.945 454.314 106.135C452.708 104.96 451.69 103.669 450.325 103.379C447.526 102.721 444.573 102.202 441.809 102.201C439.412 102.147 437.338 101.528 435.595 100.199C433.007 98.3893 430.063 97.7244 427.042 97.1281C425.89 96.9217 424.662 96.784 423.518 96.4325C419.66 95.2101 415.742 93.7663 411.875 92.6889C399.986 89.4414 388.454 85.049 377.252 79.9468C366.264 74.9286 355.455 69.3379 345.283 62.7627C344.864 62.4497 344.522 62.0679 344.257 61.6175C344.12 61.4647 344.366 60.9687 344.545 60.3962C345.833 60.7553 347.054 61.0381 348.197 61.3896C348.827 60.55 349.304 59.8479 349.618 59.4282C352.629 58.9328 355.272 58.4908 357.916 58.0488C358.97 56.1408 360.891 56.897 362.434 56.615C365.811 56.0663 368.859 57.4641 372.042 57.7779C372.332 57.7933 372.638 57.5186 372.937 57.3889C373.055 56.595 373.173 55.8012 373.299 54.8623C375.338 54.8247 377.163 54.7031 378.912 54.6501C379.502 55.7724 379.964 56.597 380.427 57.4215C386.416 58.2476 386.417 58.2475 389.46 57.1721C387.999 56.0038 385.73 56.2474 384.234 54.4226C386.793 54.1943 388.747 54.3704 390.651 55.4167C392.632 56.3944 394.374 57.7231 396.908 57.9299C396.906 56.6933 396.887 55.7467 396.816 54.4338C398.302 55.167 399.523 55.4498 400.428 56.1523C402.94 58.0308 405.772 58.1079 408.757 58.0477C410.796 58.0101 412.911 57.9038 414.865 58.0799C419.284 58.3865 423.611 59.0518 428.131 58.8546C430.972 58.7866 433.924 59.3065 436.8 59.8951C437.952 60.1015 438.849 60.9491 439.908 61.5143C441.356 60.3544 442.883 60.3625 444.191 61.6681C443.526 61.8512 442.784 62.1028 442.119 62.2858C443.033 62.8433 443.706 62.5153 444.259 61.7445C448.531 60.8068 453.446 61.3577 457.859 63.0459C458.568 63.3744 459.276 63.7028 459.917 63.9549C460.283 63.9015 460.573 63.9169 460.94 63.8635C463.258 62.7497 465.442 62.7198 467.765 64.0792C468.892 64.7207 470.318 65.2326 471.555 65.2252C475.563 65.0737 479.192 66.5022 482.896 67.8619C484.535 68.4578 486.166 69.1987 487.77 69.138C488.861 69.1231 489.8 69.2454 490.815 69.2992C493.998 69.613 497.147 70.5071 500.22 71.4697C503.079 72.3483 505.64 73.3567 507.692 75.6473C509.059 77.1743 510.75 78.1366 513.087 77.9693C514.179 77.9543 515.306 78.5959 516.373 79.016C518.081 79.6882 519.856 80.4368 521.564 81.109L521.632 81.1853C523.339 81.8576 525.123 82.4611 526.669 83.4157C532.305 86.6233 537.865 89.8995 543.339 93.3896C545.167 94.5045 546.663 96.3293 548.176 97.864C549.585 98.6659 549.518 99.8262 548.744 100.658Z" fill="#F1EFFB"/>
</svg>
